<?xml version="1.0" encoding="UTF-8"?>
<svg id="Layer_1" data-name="Layer 1" xmlns="http://www.w3.org/2000/svg" xmlns:xlink="http://www.w3.org/1999/xlink" viewBox="0 0 512 512">
  <defs>
    <style>
      .cls-1 {
        fill: url(#linear-gradient-2);
      }

      .cls-2 {
        stroke: #231f20;
        stroke-miterlimit: 10;
      }

      .cls-3 {
        fill: url(#linear-gradient);
      }
    </style>
    <linearGradient id="linear-gradient" x1="136.42" y1="207.77" x2="416.12" y2="207.77" gradientUnits="userSpaceOnUse">
      <stop offset="0" stop-color="#f2f2f2"/>
      <stop offset="1" stop-color="gray"/>
    </linearGradient>
    <linearGradient id="linear-gradient-2" x1="95.88" y1="304.23" x2="375.58" y2="304.23" gradientUnits="userSpaceOnUse">
      <stop offset="0" stop-color="#e2e2e2"/>
      <stop offset="1" stop-color="#6b6b6b"/>
    </linearGradient>
  </defs>
  <rect class="cls-2" width="512" height="512"/>
  <g>
    <path class="cls-3" d="M345.85,246.77c39.67,11.58,56.19-20.63,56.19-20.63-22.2,14.54-48.99,6.92-69.88-6.1-7.85-4.89-15.01-10.61-21.79-16.89-6.81-6.31-14.73-11.19-22.1-16.79-10.77-8.18-22.65-13.18-36.08-14.77-12.17-1.44-24.55-.99-36.71.37-.71.08-13.02,1.57-12.98,1.9,10.68-6.32,22.39-11.05,34.57-13.49,10.97-2.19,22.21-1.39,33.12.93,6.69,1.42,13.62,3.33,19.74,6.42,7.08,3.57,13.4,8.42,19.71,13.17,6.37,4.79,13.12,8.97,20.12,12.76,15.69,8.51,39.28,18.79,56.1,6.8,1.27-.9,2.48-1.95,3.46-3.17.14-.18.76-1.33.97-1.37-24.9,5.33-41.96-18.52-41.96-18.52-22.34-27.07-56.16-44.33-94-44.33-56.47,0-103.97,38.42-117.77,90.55-.16.61-.22,1.34-.1,1.96.21,1.06,1.15,1.17,2.03.83,1.7-.64,3.04-1.97,4.79-2.5.71-.22,1.43-.43,2.15-.63,2.1-.59,4.22-1.13,6.35-1.62,2.88-.66,5.78-1.24,8.69-1.74,3.51-.6,7.04-1.08,10.58-1.44,3.99-.4,8-.65,12.01-.71,4.33-.07,8.66.07,12.98.44,4.53.4,9.04,1.06,13.49,2.02s9.15,2.33,13.55,4.03c7.07,2.73,13.43,6.47,19.58,10.86,2.01,1.43,4.14,2.67,6.19,4.05,3,2,6.21,4.01,8.77,6.57.52.5,1,.96,1.57,1.39.98.72,1.97,1.43,2.96,2.13,3.61,2.55,7.3,5.01,11.04,7.37,5.15,3.26,10.42,6.34,15.82,9.18,5.87,3.09,11.91,5.9,18.14,8.18,4.22,1.54,8.54,2.83,12.95,3.66,0,0,60.25,19.89,96.01-21.23,0,0-50.11,34.04-104.24-6.89,0,0-26.01-19.13-36.72-28.31,0,0-20.66-19.32-41.89-23.72,0,0,27.92-6.31,61.01,19.51,0,0,35.73,25.11,51.57,29.74Z"/>
    <path class="cls-1" d="M166.15,265.23c-39.67-11.58-56.19,20.63-56.19,20.63,22.2-14.54,48.99-6.92,69.88,6.1,7.85,4.89,15.01,10.61,21.79,16.89,6.81,6.31,14.73,11.19,22.1,16.79,10.77,8.18,22.65,13.18,36.08,14.77,12.17,1.44,24.55.99,36.71-.37.71-.08,13.02-1.57,12.98-1.9-10.68,6.32-22.39,11.05-34.57,13.49-10.97,2.19-22.21,1.39-33.12-.93-6.69-1.42-13.62-3.33-19.74-6.42-7.08-3.57-13.4-8.42-19.71-13.17-6.37-4.79-13.12-8.97-20.12-12.76-15.69-8.51-39.28-18.79-56.1-6.8-1.27.9-2.48,1.95-3.46,3.17-.14.18-.76,1.33-.97,1.37,24.9-5.33,41.96,18.52,41.96,18.52,22.34,27.07,56.16,44.33,94,44.33,56.47,0,103.97-38.42,117.77-90.55.16-.61.22-1.34.1-1.96-.21-1.06-1.15-1.17-2.03-.83-1.7.64-3.04,1.97-4.79,2.5-.71.22-1.43.43-2.15.63-2.1.59-4.22,1.13-6.35,1.62-2.88.66-5.78,1.24-8.69,1.74-3.51.6-7.04,1.08-10.58,1.44-3.99.4-8,.65-12.01.71-4.33.07-8.66-.07-12.98-.44-15.96-1.39-31.37-6.32-44.66-15.39-3.55-2.42-7.08-4.87-10.6-7.34-4.42-3.08-8.44-6.67-12.89-9.75-4.21-2.91-8.51-5.7-12.89-8.36-11.38-6.91-23.45-13.28-36.29-16.99-2.22-.64-4.46-1.19-6.73-1.62,0,0-60.25-19.89-96.01,21.23,0,0,50.11-34.04,104.24,6.89,0,0,26.01,19.13,36.72,28.31,0,0,20.66,19.32,41.89,23.72,0,0-27.92,6.31-61.01-19.51,0,0-35.73-25.11-51.57-29.74Z"/>
  </g>
</svg>